<?xml version="1.0" encoding="UTF-8" standalone="no"?>
<!-- Created with Inkscape (http://www.inkscape.org/) -->
<svg
   xmlns:dc="http://purl.org/dc/elements/1.1/"
   xmlns:cc="http://web.resource.org/cc/"
   xmlns:rdf="http://www.w3.org/1999/02/22-rdf-syntax-ns#"
   xmlns:svg="http://www.w3.org/2000/svg"
   xmlns="http://www.w3.org/2000/svg"
   xmlns:sodipodi="http://inkscape.sourceforge.net/DTD/sodipodi-0.dtd"
   xmlns:inkscape="http://www.inkscape.org/namespaces/inkscape"
   width="5000pt"
   height="3000pt"
   id="svg2399"
   sodipodi:version="0.32"
   inkscape:version="0.43"
   version="1.0"
   sodipodi:docbase="E:\wiki"
   sodipodi:docname="Singapore mainland.svg">
  <defs
     id="defs2401" />
  <sodipodi:namedview
     id="base"
     pagecolor="#ffffff"
     bordercolor="#666666"
     borderopacity="1.0"
     inkscape:pageopacity="0.0"
     inkscape:pageshadow="2"
     inkscape:zoom="0.12374369"
     inkscape:cx="3421.3324"
     inkscape:cy="1406.0984"
     inkscape:document-units="px"
     inkscape:current-layer="layer1"
     inkscape:window-width="1280"
     inkscape:window-height="1005"
     inkscape:window-x="-4"
     inkscape:window-y="-4" />
  <metadata
     id="metadata2404">
    <rdf:RDF>
      <cc:Work
         rdf:about="">
        <dc:format>image/svg+xml</dc:format>
        <dc:type
           rdf:resource="http://purl.org/dc/dcmitype/StillImage" />
      </cc:Work>
    </rdf:RDF>
  </metadata>
  <g
     inkscape:label="Layer 1"
     inkscape:groupmode="layer"
     id="layer1">
    <g
       id="g2413"
       inkscape:label="Layer 1"
       transform="translate(163.9355,122.581)">
      <path
         id="path1307"
         d="M 2903.05,305.282 L 2925.08,309.56 L 2927.5,314.5 L 2938.75,319.5 L 2952.75,326.5 L 2958,330.75 L 2955.5,334.75 L 2941.75,345 L 2920.25,363 L 2913.25,368.5 L 2905.5,381.25 L 2904.25,385.25 L 2908.75,387.75 L 2918.25,383.25 L 2925.5,374.75 L 2929.75,370 L 2931.5,364.5 L 2940.5,359 L 2948.75,360.25 L 2955,364.75 L 2960,368.25 L 2967,366.75 L 2974.25,370.75 L 2980.5,373.5 L 2972.75,389.5 L 2985.25,395.25 L 3027.25,333 L 3076.75,361.25 L 3081,356.5 L 3089,360.5 L 3084.75,365.75 L 3110,381.25 L 3080.75,432.75 L 3093.25,440.5 L 3124,386.25 L 3137.75,385.75 L 3148,387.75 L 3156.25,392.5 L 3183.5,411.25 L 3192.5,417.25 L 3205,434.25 L 3214.5,432.5 L 3222.61,436.505 L 3240.5,448.25 L 3245.75,452 L 3247.75,454 L 3244.75,455.75 L 3220.75,470 L 3224.75,474.25 L 3249,460 L 3255,465 L 3262.25,467 L 3267.5,470.75 L 3283,478 L 3296.75,483.25 L 3306.5,486.5 L 3315.5,491.75 L 3329.25,509.5 L 3335.5,520.75 L 3339.75,536.5 L 3340.75,547 L 3339,549.75 L 3339.75,550.5 L 3333.75,550.75 L 3332.5,548 L 3328,551.25 L 3325.75,556.25 L 3325.5,559.5 L 3322.25,560.5 L 3317.5,563.5 L 3312.25,562.5 L 3312.75,566.75 L 3307.75,569.75 L 3302.25,570.5 L 3295,572.75 L 3292,575.25 L 3288.5,575.25 L 3289.25,573 L 3293,571.25 L 3300,568.25 L 3303.25,567 L 3303.75,563.5 L 3302.75,560.5 L 3294.25,562 L 3287,567.25 L 3284.25,570.75 L 3283.5,573.5 L 3280,573 L 3274,568.5 L 3271.75,563 L 3269,545.75 L 3266,541.25 L 3264.25,531.5 L 3266.25,525.75 L 3263.5,526.5 L 3259.75,526.5 L 3259,530.25 L 3262.75,558.5 L 3260.75,567 L 3257.5,581 L 3256.5,589.25 L 3260,593.75 L 3265.5,597.5 L 3271,603.75 L 3275.25,606.75 L 3277,604 L 3276.5,600.25 L 3265.25,589 L 3267.5,584.5 L 3276.5,587.75 L 3285.5,594.5 L 3304.25,595 L 3314.5,591.5 L 3323.75,588.75 L 3330.5,587 L 3339.25,580.5 L 3344,577 L 3353,576.5 L 3362.75,579.75 L 3375.5,585.75 L 3383.75,598.5 L 3389,613 L 3391.75,624.25 L 3395.53,650.642 L 3385.28,661.609 L 3380.88,666.726 L 3372.09,676.959 L 3364.03,683.912 L 3352.69,693.063 L 3342.78,700.752 L 3338,707.5 L 3327.25,711.75 L 3314,716.75 L 3300.25,724 L 3294,728.5 L 3289.25,729.5 L 3284.75,729.75 L 3279.25,730.25 L 3278.25,732.25 L 3279.5,736.25 L 3280,738.5 L 3286.5,736.75 L 3290.75,736.75 L 3294.25,738 L 3299,736.5 L 3300,733.75 L 3306.5,730.25 L 3316.75,725.25 L 3322,722.5 L 3333.5,720 L 3339,720.75 L 3342.75,723.25 L 3344.75,723.25 L 3346.5,721.25 L 3344,718.75 L 3343.5,716.25 L 3350.88,711.643 L 3372.13,696.988 L 3382.77,685.291 L 3390.1,678.341 L 3393.75,675.25 L 3396.75,673.5 L 3399.75,672.5 L 3405,671.75 L 3408.75,672 L 3412,674 L 3415.75,678.25 L 3430,694.75 L 3434.25,701.25 L 3436.5,706.75 L 3437.75,710.25 L 3439.75,713 L 3444.5,717 L 3448.5,719.5 L 3453.25,722.5 L 3458.75,728.25 L 3463,735 L 3464,742.75 L 3465.5,745.25 L 3468.75,750 L 3474.25,755.5 L 3476.5,760.75 L 3476.25,765.75 L 3477,775.5 L 3473.5,783 L 3471.5,788.75 L 3468.25,796.75 L 3462.27,801.492 L 3456.5,807.5 L 3453,811.25 L 3451.75,813.25 L 3449.5,813.75 L 3445.75,814.25 L 3443.5,815 L 3440.25,818.25 L 3440,822.25 L 3441,825 L 3441,832.25 L 3441.25,836.75 L 3439.25,840 L 3435,842.75 L 3428.25,846.5 L 3425,848.5 L 3421,849 L 3418.5,849 L 3418.75,851 L 3418.75,854.25 L 3417,857.75 L 3414.25,863.25 L 3414.25,867 L 3413.5,869.5 L 3411.5,871.5 L 3411,875.25 L 3408.75,878.5 L 3407.75,880.75 L 3410,883 L 3413.5,882.75 L 3418,883.25 L 3421.5,885 L 3424,885.75 L 3427,889.75 L 3433.25,893.25 L 3461.25,906.5 L 3472.5,906.5 L 3474.25,910.5 L 3476,912.25 L 3482.25,914.5 L 3486.25,914.25 L 3488.75,911.25 L 3488.25,905.5 L 3491.75,902.75 L 3496.75,900.5 L 3508.25,896 L 3510.75,892.5 L 3516.5,890.75 L 3519.25,888.75 L 3522.5,888.25 L 3524.25,889.75 L 3527,889.5 L 3529.5,887.75 L 3532.25,886.25 L 3535.75,884.75 L 3538,885.25 L 3539.25,888.75 L 3542.75,891.25 L 3545.25,892 L 3553.09,889.605 L 3561.54,887.385 L 3572.91,891.708 L 3593.87,902.181 L 3613.72,921.763 L 3624.39,938.834 L 3638.76,961.353 L 3653.47,974.766 L 3667.78,984.174 L 3682.49,997.587 L 3692.77,1001.19 L 3696.75,1004 L 3701.75,1005.25 L 3704.25,1007 L 3706.5,1009 L 3706.5,1013.5 L 3707,1017.25 L 3705.5,1021.25 L 3698.75,1026.5 L 3695.75,1029.25 L 3695.5,1031.25 L 3698.25,1032.25 L 3701.25,1030.5 L 3703.75,1030 L 3707,1031.25 L 3707.25,1033.25 L 3708.75,1035 L 3707.25,1038.25 L 3704.75,1040.5 L 3706,1042 L 3708.5,1041.5 L 3710,1039 L 3712.25,1039.5 L 3712.5,1041.75 L 3712.25,1044.25 L 3709.5,1044.5 L 3701.25,1044.5 L 3701.25,1046.5 L 3701.5,1048.75 L 3700.75,1050.5 L 3698.25,1051.5 L 3697.25,1052.75 L 3699.25,1054.75 L 3701.25,1054 L 3703.5,1052 L 3705.5,1052 L 3707.25,1053.5 L 3711.25,1056.25 L 3713.5,1055.75 L 3715.5,1054.75 L 3715.25,1050.75 L 3716.75,1047.5 L 3718.75,1045 L 3718,1040.5 L 3718.25,1036.75 L 3715.75,1030.5 L 3715.25,1025.75 L 3715,1018.25 L 3712.5,1013.25 L 3714,1010.25 L 3714.5,1004.75 L 3715,999.5 L 3717.75,995.5 L 3721,993.5 L 3725.25,991.25 L 3738.25,989.5 L 3747.5,988.75 L 3755,990 L 3760.75,991.5 L 3773,996.75 L 3782,1002 L 3794,1009.5 L 3801.5,1014.25 L 3813.5,1016.75 L 3833,1021.5 L 3844.75,1024.5 L 3871,1028 L 3881,1038 L 3887,1042 L 3889,1052 L 3885,1064 L 3842.38,1110.54 L 3830.27,1118.24 L 3822.59,1124.46 L 3809.74,1129.98 L 3806.25,1134.75 L 3798.5,1140 L 3791.75,1147.5 L 3785.5,1156.25 L 3780,1164.75 L 3778.75,1170 L 3778.75,1177 L 3780.25,1179.25 L 3780.5,1182.25 L 3779.25,1188.25 L 3778.75,1192.25 L 3776.25,1194.75 L 3773.25,1197 L 3770,1197.25 L 3764.75,1196.75 L 3762.25,1195.75 L 3762.25,1198.5 L 3761.5,1206.25 L 3763,1209.75 L 3764.5,1211.75 L 3766,1215.75 L 3767,1220.25 L 3766.75,1224.75 L 3765.25,1229 L 3766.5,1230.5 L 3768.75,1232 L 3768.25,1238.25 L 3766.5,1239.25 L 3763.75,1240.25 L 3762,1241.5 L 3759.75,1246.5 L 3756.75,1249.75 L 3757.5,1252.5 L 3755.5,1254.5 L 3752.5,1257.25 L 3751.5,1261.25 L 3750.75,1265 L 3747.75,1268.25 L 3744.25,1270.25 L 3737.5,1274 L 3725.75,1279.5 L 3720.75,1283 L 3719.5,1286 L 3716,1289.5 L 3714.75,1292 L 3713.75,1297.5 L 3713.25,1302.5 L 3714.5,1313.25 L 3716,1317.5 L 3717.5,1327.25 L 3716.25,1330.75 L 3714.75,1338.25 L 3711,1342.25 L 3710.5,1346.25 L 3706.5,1350.75 L 3704.5,1355.5 L 3708.5,1359 L 3710.5,1354.75 L 3715.25,1348.75 L 3719,1342.5 L 3720.5,1335.25 L 3722,1326.25 L 3721.25,1312.75 L 3719.75,1303.5 L 3721.25,1296.75 L 3725,1291.75 L 3734.5,1286.25 L 3748.25,1281.25 L 3760,1274.25 L 3768.75,1261 L 3773,1249.5 L 3776.25,1241.25 L 3776.75,1235.5 L 3779,1232.25 L 3782.25,1229.75 L 3787.25,1218.5 L 3791.75,1205.5 L 3793.5,1196.75 L 3795.25,1189 L 3794.75,1180 L 3794.5,1173 L 3799.25,1163.5 L 3804.25,1157.5 L 3811,1151.5 L 3840,1135 L 3866,1121 L 3876,1104 L 3909,1062 L 3929,1020 L 3942,992 L 3957,977 L 3986,960 L 4003.5,951 L 4011.25,948.25 L 4020,948.5 L 4030.5,948.5 L 4041.5,949.75 L 4046,944.25 L 4052.25,937.75 L 4057,934.5 L 4062,934.5 L 4064.75,936.5 L 4067.25,937.5 L 4071,937 L 4077.75,937.75 L 4083.25,936.75 L 4086.5,934.75 L 4090.5,931.75 L 4094.5,931 L 4104.5,933.25 L 4114,934.75 L 4118.5,935.75 L 4120.25,938.25 L 4121.25,950.5 L 4124,953.5 L 4127.75,958.75 L 4131.25,964.25 L 4133.75,968.25 L 4134.25,977.25 L 4134.25,988.25 L 4136.5,999.25 L 4137.25,1004 L 4138.75,1012.75 L 4141.5,1023.5 L 4142.75,1032.5 L 4143.75,1040 L 4146.75,1046.75 L 4155.25,1062.25 L 4162.75,1076.25 L 4172,1095 L 4200,1122 L 4213,1134 L 4234,1149 L 4241,1151.5 L 4250,1158.5 L 4264.5,1165 L 4278.5,1172.5 L 4283,1177 L 4289.5,1190 L 4290.5,1202 L 4286.5,1208.5 L 4273.5,1213.5 L 4258.5,1224.5 L 4235.5,1243 L 4220.5,1254.5 L 4207,1268 L 4199,1277.5 L 4191,1287.5 L 4179,1303 L 4168,1317.5 L 4160.5,1331.5 L 4155,1344.5 L 4153.5,1349.5 L 4152.25,1355.25 L 4149,1362 L 4147,1368 L 4143.25,1374 L 4140.25,1379.75 L 4135.25,1384.25 L 4127,1388.25 L 4120.25,1391.75 L 4110.5,1392 L 4094.5,1388.75 L 4084.75,1386.5 L 4071.5,1386.5 L 4053,1388 L 4045,1391.5 L 4030.5,1396 L 4022.5,1403.5 L 4014.5,1414.5 L 4011.75,1424.5 L 4011.5,1427.5 L 4011.5,1434 L 4011.25,1442.25 L 4011,1449.75 L 4011.25,1456.25 L 4012.75,1459.5 L 4014.5,1461.75 L 4015.25,1469.5 L 4015,1478.25 L 4015.75,1494.25 L 4013.75,1499.75 L 4012.5,1504.75 L 4013,1508.5 L 4014.5,1511.5 L 4014.25,1516 L 4011.25,1523.75 L 4007.5,1530.5 L 4004.75,1533.63 L 3999.25,1540.25 L 3990.38,1548.5 L 3982.63,1557.38 L 3977.88,1563.38 L 3972.5,1572.5 L 3969.25,1579 L 3965.5,1586.13 L 3961.5,1594.63 L 3959.38,1599.38 L 3957.13,1605.25 L 3954.63,1611 L 3952.13,1616.63 L 3951,1620.63 L 3950.38,1624.63 L 3950.38,1626.88 L 3952.13,1627.5 L 3954,1626.75 L 3956.88,1625.5 L 3959.25,1621.75 L 3962,1613.75 L 3965.63,1603.63 L 3971.25,1590.63 L 3977.63,1578.25 L 3980.38,1572.63 L 3990.38,1558.63 L 3998.13,1550.38 L 4001.88,1546.88 L 4008,1541.13 L 4012.38,1535.5 L 4017.75,1524.75 L 4022.38,1513.63 L 4026.75,1498.63 L 4025.88,1483.63 L 4025.5,1475.38 L 4022.75,1469.63 L 4021.5,1452.5 L 4021.13,1439.38 L 4021.5,1434 L 4021.63,1427.25 L 4023.38,1422.63 L 4024.75,1419 L 4027.5,1414.88 L 4032.63,1410.5 L 4037.13,1407 L 4045.75,1404 L 4054.5,1402.5 L 4076,1399.5 L 4090,1401 L 4109.5,1406.5 L 4119.5,1404.25 L 4126.25,1403.25 L 4133.5,1399.75 L 4140.5,1394 L 4147.5,1388.25 L 4156.25,1376.5 L 4160,1370 L 4162.25,1361.75 L 4164.75,1353.5 L 4168.75,1346.5 L 4173.75,1341.75 L 4178.75,1336.75 L 4187.75,1331 L 4197,1326.25 L 4202.75,1325.25 L 4210.25,1324.5 L 4218.25,1324.75 L 4222.75,1325.75 L 4226.5,1330 L 4229.75,1337.5 L 4232.25,1342.75 L 4237.5,1346.5 L 4243.75,1350 L 4247.75,1354.5 L 4248.75,1358.5 L 4248.5,1364 L 4247.25,1367.75 L 4244.75,1369 L 4241.5,1367.75 L 4239,1366.25 L 4235.25,1363.75 L 4231.5,1362 L 4229.75,1364 L 4228.5,1367.25 L 4227.75,1372.5 L 4229,1380 L 4232.25,1387.5 L 4235.25,1391.75 L 4238.5,1394.75 L 4238.25,1396 L 4235.5,1396.25 L 4230,1396.75 L 4224.75,1398 L 4220.5,1400.75 L 4219.5,1404.25 L 4221,1408.75 L 4223.75,1412.75 L 4226.25,1416 L 4228.75,1419.75 L 4231.5,1423.25 L 4233.25,1425.5 L 4235.5,1425.5 L 4235.25,1423.25 L 4232.25,1421.5 L 4227.75,1414 L 4224.5,1408.5 L 4224.25,1405 L 4225.75,1402.25 L 4229.25,1400.5 L 4233.75,1399.5 L 4236.5,1398.75 L 4239.25,1400.25 L 4241,1402.75 L 4242.25,1404.5 L 4244.5,1405 L 4246.25,1403.5 L 4247,1400.75 L 4246.75,1398 L 4245.75,1396.25 L 4242.75,1393.5 L 4238.75,1389.5 L 4235.5,1385.75 L 4234.25,1381 L 4232.75,1375 L 4232,1370.25 L 4233,1368.5 L 4235.25,1369.5 L 4239,1372.25 L 4241.75,1373.5 L 4246.25,1373.25 L 4248.75,1371.25 L 4251.5,1368.5 L 4253,1363 L 4254.25,1359.25 L 4254.75,1354.5 L 4254,1350.5 L 4253,1348.25 L 4249.75,1347.25 L 4246,1346 L 4242.75,1343.75 L 4239.75,1341.25 L 4237,1337.5 L 4234.75,1333 L 4231.5,1328.25 L 4230.25,1322.5 L 4229,1319.5 L 4225.75,1317 L 4222,1315.75 L 4217.5,1315 L 4208.5,1314 L 4201.75,1314.25 L 4197.25,1315.25 L 4193,1316.5 L 4189.25,1318.25 L 4185.75,1320.5 L 4182,1321.25 L 4182.5,1319 L 4185,1316.5 L 4188.5,1313.5 L 4200.5,1299 L 4210.5,1287.5 L 4219.5,1278.5 L 4226.5,1272 L 4236,1264.25 L 4249.25,1253.5 L 4260.5,1245.25 L 4269,1239.5 L 4297.5,1226 L 4321,1215.5 L 4337.5,1212 L 4349.5,1209.5 L 4362.5,1217.5 L 4381.5,1233 L 4396,1244.5 L 4405.5,1260.5 L 4409.5,1273.5 L 4421.5,1293.5 L 4424,1299.5 L 4427.5,1307.5 L 4435.5,1321 L 4438,1327 L 4439,1330 L 4441.75,1334.5 L 4446,1336.5 L 4451.25,1337.5 L 4457.5,1338.25 L 4461.75,1340 L 4462.75,1343.5 L 4466.25,1345.75 L 4471.5,1347 L 4478.25,1351.75 L 4483.25,1356.75 L 4487.5,1359.25 L 4492.5,1359.5 L 4496.25,1363.75 L 4501.75,1367.5 L 4516.25,1376.75 L 4523,1381 L 4526.75,1385.5 L 4530.5,1389.25 L 4537,1393.25 L 4548,1400 L 4566,1409.25 L 4582,1418.5 L 4589.25,1422.5 L 4590,1426 L 4589.75,1430.75 L 4590.25,1432.75 L 4592.25,1431.5 L 4594,1428 L 4596,1424 L 4600.25,1423 L 4603.5,1425.75 L 4610,1427.75 L 4621,1427.5 L 4624.5,1429 L 4628.75,1432 L 4634.5,1433.25 L 4643.25,1434.5 L 4649.25,1434.5 L 4652.25,1432.75 L 4654,1429.25 L 4655.5,1426.25 L 4657.5,1426.25 L 4658.25,1429 L 4659.5,1431.75 L 4661.75,1434.75 L 4664.5,1439 L 4666.75,1440.75 L 4671.5,1441 L 4676.5,1441.25 L 4679.75,1440 L 4682.5,1439 L 4688.5,1440 L 4696.5,1441.5 L 4700.25,1442.25 L 4708.75,1443 L 4720.75,1443.5 L 4729.25,1443.75 L 4734,1442.25 L 4739,1440.25 L 4747.5,1440.75 L 4752.25,1440.25 L 4756.25,1438.75 L 4762.75,1437 L 4772.25,1436.25 L 4783,1433.75 L 4790,1433 L 4795.5,1437.5 L 4797.25,1440.5 L 4799.25,1443 L 4802.5,1442.5 L 4804.25,1439.75 L 4804.75,1438.5 L 4811,1438.75 L 4814.75,1439.75 L 4814.25,1443.5 L 4814.25,1447 L 4814.25,1450 L 4817,1451 L 4820.5,1448 L 4823,1446.25 L 4824,1443.25 L 4824,1439.75 L 4824.25,1435.5 L 4823,1429.25 L 4820.25,1421.5 L 4818.75,1418 L 4818,1415.25 L 4815,1414.75 L 4813,1411.5 L 4811.25,1409 L 4809.5,1409.75 L 4807,1410.75 L 4805,1410.75 L 4802.75,1410 L 4802,1408 L 4804.75,1406.5 L 4808.25,1405.25 L 4812,1403.75 L 4810.75,1399.75 L 4808.25,1391.5 L 4808.5,1389.75 L 4809.75,1388 L 4811.25,1387.75 L 4812.5,1390.5 L 4812,1392.5 L 4813.5,1399 L 4815.75,1403.75 L 4816.75,1405.5 L 4818.25,1408 L 4819.75,1410.25 L 4820.75,1412.5 L 4822.25,1413 L 4822,1411 L 4822.5,1408.75 L 4824.5,1408 L 4826,1411.5 L 4826,1413.25 L 4828.75,1412.5 L 4832,1410.5 L 4831.75,1407.75 L 4830.25,1404.25 L 4830.5,1401.75 L 4831.75,1401.25 L 4834.25,1400 L 4837,1402.25 L 4838.5,1405.25 L 4841.59,1402.8 L 4851.5,1393.66 L 4854.78,1388.18 L 4866.89,1379.76 L 4876.25,1372 L 4880.75,1370.25 L 4884.75,1367.25 L 4887,1366.5 L 4893.75,1366.75 L 4898,1367.25 L 4902.25,1367.75 L 4903,1369.75 L 4903.75,1372.75 L 4903.5,1375 L 4904.25,1376.75 L 4907,1378.75 L 4908.5,1379.5 L 4909.25,1377.75 L 4909.5,1376 L 4911.5,1375.25 L 4915.5,1375.5 L 4920.75,1374 L 4925.25,1373.75 L 4927.5,1373.25 L 4930.25,1371.75 L 4932.25,1371.75 L 4935,1372.75 L 4935.5,1375 L 4934.5,1377.5 L 4932.25,1380.5 L 4929.75,1384 L 4929.75,1385.75 L 4931.25,1387 L 4933,1386 L 4935.25,1383.75 L 4937,1380.25 L 4937.75,1378 L 4938.25,1374.25 L 4937.75,1371.5 L 4934.5,1369.75 L 4932,1368.75 L 4927.5,1368.75 L 4920,1368.75 L 4915.25,1368.75 L 4912,1367.25 L 4908.25,1362 L 4905.75,1359.5 L 4905.75,1354.5 L 4905.5,1351.5 L 4903.75,1348 L 4901.75,1344.5 L 4902,1338.25 L 4902,1331.5 L 4904,1328 L 4906.75,1325 L 4918.14,1317.63 L 4932.07,1307.74 L 4939,1305 L 4944.5,1303.75 L 4954.25,1303.75 L 4970,1301.75 L 4972.75,1300.5 L 4979.5,1301.5 L 4988.25,1302 L 5001.25,1302 L 5005.75,1299.5 L 5009.75,1298 L 5018,1298.25 L 5023.75,1300.5 L 5029.25,1301.75 L 5039.75,1302.5 L 5048.25,1302.5 L 5049.5,1300.25 L 5051.75,1298.75 L 5054.5,1299.5 L 5053.75,1302.5 L 5056,1305 L 5060.25,1307.25 L 5065,1307.75 L 5073,1311.5 L 5075.75,1314 L 5079.5,1317.25 L 5084.75,1320.5 L 5087.25,1322.5 L 5090.25,1324.75 L 5092.75,1326.75 L 5099.25,1328.75 L 5106.75,1331.25 L 5110.75,1332 L 5116,1332.75 L 5119.25,1333.75 L 5125,1334.25 L 5127.5,1332.75 L 5125.25,1332 L 5123.75,1331.25 L 5122,1329.75 L 5121.5,1328.25 L 5121,1325.75 L 5120.75,1324.5 L 5115.75,1323.75 L 5109.5,1321.5 L 5103.5,1321.5 L 5099.5,1322 L 5095.5,1321.25 L 5092.75,1321.25 L 5090,1319.25 L 5088.75,1316.5 L 5086.25,1314.75 L 5084.75,1310 L 5082.75,1307.5 L 5079.5,1304.75 L 5076.5,1303.5 L 5073.75,1303.25 L 5071,1303.75 L 5068.25,1304.5 L 5065,1303.5 L 5066,1300.75 L 5065.75,1297.25 L 5068.25,1294.5 L 5071.25,1291.5 L 5074,1291 L 5081.25,1292 L 5088,1294.5 L 5108.25,1304 L 5121.5,1308.75 L 5132,1313 L 5142,1316.5 L 5148.75,1316.75 L 5156.75,1319 L 5166.75,1323.25 L 5172,1327 L 5177.75,1330 L 5184.25,1332 L 5192.25,1333.25 L 5203.25,1336.5 L 5214.75,1338.75 L 5224.25,1344.5 L 5226.5,1345.25 L 5229.25,1349.25 L 5235.5,1359.25 L 5241.75,1369.25 L 5247.75,1380.75 L 5255.5,1393 L 5260.5,1398.75 L 5264.5,1400.75 L 5266.75,1402.75 L 5268.25,1406.5 L 5267.25,1411.75 L 5267,1415.25 L 5295.03,1482.12 L 5307.91,1505.74 L 5311,1515.5 L 5316.5,1526 L 5328,1537 L 5335.5,1538.5 L 5346,1540.5 L 5348,1546.5 L 5346,1556.5 L 5334.5,1558 L 5329.5,1558 L 5322,1558.5 L 5319.5,1571 L 5316,1581.5 L 5320,1586.5 L 5329,1586.5 L 5349,1586 L 5354,1592 L 5356,1600 L 5362,1601 L 5375,1600 L 5389,1594 L 5413,1583 L 5431,1588 L 5462,1601 L 5485,1612 L 5505,1620 L 5548,1641 L 5683,1712 L 5629,1847 L 5605,1903 L 5583,1954 L 5554,2023 L 5535,2059 L 5510.5,2119 L 5506.5,2124.75 L 5502.5,2131 L 5497.25,2139.5 L 5495,2149.5 L 5494,2158.5 L 5497.75,2163 L 5505.25,2165.25 L 5517.25,2162 L 5526.25,2159.5 L 5534.25,2160 L 5538.75,2161.5 L 5599.5,2162.5 L 5623,2162.25 L 5622.75,2280.25 L 5604.5,2280.5 L 5603.75,2268.25 L 5608.25,2268 L 5608.5,2243.5 L 5610.75,2240.75 L 5610.25,2222.75 L 5585.25,2223 L 5585.5,2228 L 5535.75,2228.25 L 5535.75,2284 L 5524.25,2281 L 5441.75,2281.75 L 5424.5,2284.25 L 5415.5,2285.25 L 5401.75,2285 L 5387.5,2287.75 L 5380.5,2290.75 L 5388,2307.25 L 5375,2313 L 5367.25,2296.25 L 5354.5,2300.25 L 5343.5,2309.75 L 5332.5,2319 L 5323,2325.75 L 5327.25,2332.5 L 5334.25,2329 L 5336,2331 L 5323.5,2339.25 L 5319,2341.75 L 5309.75,2347.75 L 5302,2352.75 L 5286,2357.25 L 5267.25,2361.75 L 5242.75,2361.25 L 5235,2359.75 L 5228.75,2357.25 L 5223.75,2356 L 5217.5,2353.25 L 5212,2351.25 L 5211,2349.5 L 5212,2347 L 5218.5,2332 L 5220.5,2326.25 L 5222,2323.75 L 5221.5,2321.75 L 5220.25,2320.5 L 5218.5,2322 L 5217.5,2325.25 L 5213.75,2332.25 L 5209.75,2342 L 5207.75,2346.25 L 5206,2346.75 L 5203,2346.25 L 5190,2341 L 5161.25,2328.5 L 5139.75,2318.75 L 5123.75,2312 L 5114.25,2309.25 L 5108.75,2308 L 5102.25,2309.25 L 5085.75,2314.75 L 5088.5,2324 L 5094.25,2323.25 L 5095.25,2325.25 L 5093.5,2327 L 5086.25,2328.5 L 5080.75,2315.25 L 5031.5,2331.75 L 5031,2326 L 5042.5,2323 L 5046,2319.75 L 5047.25,2315.25 L 5047,2309.75 L 5046.25,2304.75 L 5043.25,2294.5 L 5042,2285.5 L 5040,2279.5 L 5039.25,2276.25 L 5037,2272.75 L 5035,2269.5 L 5034.25,2266.5 L 5036.75,2263.5 L 5039,2257.25 L 5043,2248.5 L 5044,2246.5 L 5042.75,2245 L 5039.25,2243.75 L 5037.5,2243.5 L 5036.25,2246.5 L 5035,2249.25 L 5034.25,2252 L 5034.75,2254.75 L 5035.5,2256.25 L 5034,2259.5 L 5031.75,2263 L 5029.25,2266 L 5024.5,2269 L 5019.5,2270.75 L 5014.25,2270.5 L 5004.25,2269.5 L 4995.5,2269 L 4982.25,2270 L 4970.75,2271 L 4957.75,2274.75 L 4953.25,2277.25 L 4948.75,2278.75 L 4945.25,2280 L 4940.75,2281.5 L 4938.5,2279.25 L 4938.25,2274.5 L 4937,2270 L 4936.25,2265.5 L 4932.25,2266 L 4931,2270.5 L 4928.75,2273.25 L 4925,2274.25 L 4923.5,2276 L 4918,2276.25 L 4909.03,2272.88 L 4898,2275.75 L 4890.25,2275.25 L 4881.25,2274.5 L 4874,2280 L 4867.25,2283.5 L 4863.5,2280.75 L 4862.5,2277.75 L 4855,2278.5 L 4845.25,2283.25 L 4837.75,2288 L 4835,2283.75 L 4827.5,2285.75 L 4816.5,2291.5 L 4807.25,2297 L 4797.25,2296.5 L 4787.25,2301.5 L 4783,2301.25 L 4782.5,2299.5 L 4779,2298.25 L 4776.25,2299.75 L 4777.5,2306 L 4783,2317.5 L 4789,2329.75 L 4793,2335.75 L 4785.5,2339.5 L 4782.5,2333.5 L 4772,2310.25 L 4766,2298 L 4760.25,2300.75 L 4754.75,2301.5 L 4748.75,2303 L 4743.75,2306 L 4742,2309.25 L 4736.75,2309.75 L 4732.25,2311.5 L 4725.25,2313 L 4719.5,2315 L 4711.5,2317 L 4709.5,2320.25 L 4708.5,2322.5 L 4704.5,2326 L 4700.25,2324.75 L 4695.5,2325.25 L 4689.25,2329.5 L 4685.25,2330 L 4680.25,2332.25 L 4677.25,2335.5 L 4674.5,2338.5 L 4670.75,2340.25 L 4669.25,2338.5 L 4670.5,2336 L 4667,2335 L 4661.5,2334.75 L 4653,2336.75 L 4646.5,2338.75 L 4643.25,2342.5 L 4637.25,2344 L 4638.75,2341.25 L 4635.25,2339 L 4630.5,2341.5 L 4628,2343.75 L 4622.5,2343.75 L 4617.75,2345 L 4616,2345.75 L 4613.5,2347.75 L 4611,2346.75 L 4611.5,2344.5 L 4606.5,2344 L 4600,2345.75 L 4587.5,2349 L 4585.25,2352 L 4582.75,2350.25 L 4582.5,2348.5 L 4577.5,2348.5 L 4570.75,2350.75 L 4562.5,2352.75 L 4512.5,2370.5 L 4504.25,2373.5 L 4484.75,2380.5 L 4464.5,2388 L 4458,2390.5 L 4453.5,2393.75 L 4451,2397.75 L 4445,2397.25 L 4438.75,2397 L 4434.36,2398.67 L 4410.51,2409.7 L 4392.75,2416.5 L 4388.75,2420 L 4385.5,2422.5 L 4385,2419.5 L 4384.25,2417 L 4381.25,2416.5 L 4373.75,2415.5 L 4372.5,2413.25 L 4367.75,2413 L 4363.25,2416.5 L 4360.25,2419.25 L 4354.5,2420.25 L 4350.75,2420.25 L 4344.75,2422.5 L 4334.25,2428.75 L 4330.25,2428.75 L 4325.25,2429 L 4320.25,2429.75 L 4318,2432.5 L 4316.5,2435.25 L 4314.25,2432.75 L 4311.5,2432 L 4307,2432.5 L 4303.5,2434.5 L 4302,2437 L 4299,2434.75 L 4294.75,2434.5 L 4292,2437 L 4289,2439.5 L 4286.5,2436.75 L 4282.75,2436.25 L 4274.75,2438 L 4270.25,2440 L 4265.25,2440.5 L 4263.25,2442.75 L 4262,2445 L 4258.75,2443 L 4257.25,2441.5 L 4250.25,2442 L 4239.25,2445.75 L 4212.5,2455 L 4203.25,2459.75 L 4195,2461.5 L 4189.75,2461.75 L 4180.5,2462.5 L 4170.5,2462.75 L 4158.75,2469 L 4153.25,2473 L 4149,2476.5 L 4147,2475.25 L 4143.25,2474 L 4137.75,2475 L 4133.75,2478.25 L 4124.25,2482.75 L 4115.75,2488.5 L 4110,2493.5 L 4106.75,2496.5 L 4091.75,2501.25 L 4079.5,2504.75 L 4076.25,2505.5 L 4066.5,2508.5 L 4056.5,2511.5 L 4048.5,2513.5 L 4041,2514 L 4035.5,2516.5 L 4025.25,2521.75 L 4020.25,2523.5 L 4015.5,2525.25 L 4000.75,2526.25 L 3987.25,2532.75 L 3970.25,2536.75 L 3948,2544.5 L 3937.25,2548.75 L 3925.5,2552 L 3917.75,2556 L 3915.25,2560.25 L 3912.75,2564 L 3915,2566.5 L 3914,2568 L 3908.75,2569.25 L 3906.25,2567.5 L 3904.75,2563.5 L 3902,2560.75 L 3897.5,2561.5 L 3892,2562.75 L 3890,2564.5 L 3885.5,2567.5 L 3883,2568.25 L 3881.75,2565.75 L 3879.75,2563.5 L 3872.75,2564.75 L 3847.75,2586 L 3840.25,2594.25 L 3833.75,2600 L 3825.25,2604.25 L 3818.5,2603.75 L 3813.5,2605.25 L 3802.25,2612.75 L 3794.75,2618.25 L 3787.5,2625.25 L 3782,2633 L 3781.75,2635.25 L 3777.5,2640.75 L 3773.5,2647.25 L 3775.5,2649.25 L 3778.5,2654 L 3781.5,2654.5 L 3784,2655.25 L 3784.75,2658 L 3783.75,2660.25 L 3779.5,2661.75 L 3776.25,2663.75 L 3774.75,2661.75 L 3774,2659.25 L 3774.5,2656.25 L 3769,2647.75 L 3765.75,2648.75 L 3764.5,2651.25 L 3762.75,2648.25 L 3758.75,2646.25 L 3752.5,2648 L 3745.5,2654.5 L 3734.25,2664.75 L 3720,2677 L 3709.75,2685.75 L 3706.5,2688.5 L 3702.5,2689.75 L 3703.75,2687 L 3703.5,2684 L 3696.5,2684.25 L 3693.5,2686.5 L 3680.25,2696 L 3667.75,2707.5 L 3663,2713 L 3659.5,2720 L 3657.75,2726 L 3657.75,2733.5 L 3656.75,2738.25 L 3654,2739.75 L 3648.75,2735.75 L 3633.25,2723.75 L 3612.25,2707.5 L 3596.5,2689.25 L 3586.75,2677.5 L 3580,2670 L 3569.5,2654.5 L 3557,2638.25 L 3547.5,2619.5 L 3537.75,2600.25 L 3528.5,2574 L 3525,2562.75 L 3520.75,2548.75 L 3520.25,2538 L 3519,2523 L 3520.75,2511 L 3523.25,2505.25 L 3528.5,2501.25 L 3534.25,2500.5 L 3539,2502.75 L 3539.75,2505.25 L 3547.5,2507 L 3563,2505.5 L 3575.75,2505.25 L 3585.5,2502.5 L 3590.75,2500.75 L 3592.5,2499 L 3593.25,2496 L 3591.5,2495.75 L 3587.75,2495 L 3586,2492 L 3590.25,2492.25 L 3595,2491.25 L 3597.75,2492 L 3600,2496 L 3601,2499.75 L 3602.75,2501.75 L 3607,2500.5 L 3613.5,2500.25 L 3615.5,2498.75 L 3619,2499.5 L 3623,2502.25 L 3633.25,2505 L 3645.25,2506 L 3654,2505.25 L 3663.75,2503 L 3673,2499 L 3680,2494.75 L 3692,2482.5 L 3714.25,2459 L 3734,2439 L 3743.75,2430.25 L 3746,2427.75 L 3745,2426 L 3743.5,2424.25 L 3740,2428 L 3734.5,2433.5 L 3724,2443.5 L 3711,2456.75 L 3697.25,2469.25 L 3685,2480.5 L 3674.75,2487.75 L 3663.5,2492.75 L 3650,2494.5 L 3639.25,2493 L 3626,2487.75 L 3615.5,2480.75 L 3607.75,2473.5 L 3601.75,2462.75 L 3597.5,2453.5 L 3594.5,2441.75 L 3594.75,2435.25 L 3596.25,2429 L 3589,2428.75 L 3579.5,2428 L 3567.75,2427 L 3563.25,2427 L 3560.5,2424.25 L 3557.5,2418.75 L 3556.25,2413.5 L 3559.75,2406.5 L 3563.25,2401.25 L 3568,2396.25 L 3572.5,2392.5 L 3576.75,2389 L 3580.25,2384.25 L 3580.25,2376.25 L 3578.25,2367.75 L 3576.5,2358 L 3576.25,2355 L 3578.25,2349.75 L 3578,2343 L 3575.25,2338 L 3565.75,2328.25 L 3562.5,2321.75 L 3561.5,2313 L 3564.25,2303.5 L 3565.75,2299.25 L 3567.5,2293.5 L 3568.75,2287.25 L 3571.5,2283 L 3578.75,2278.75 L 3588,2272.5 L 3595.5,2267.75 L 3599.5,2263 L 3602.75,2259.75 L 3604.5,2253.25 L 3603.75,2245.75 L 3608,2241.5 L 3613.5,2238.25 L 3619.25,2238.5 L 3625,2237.75 L 3630.75,2236.75 L 3634.25,2235.25 L 3639.25,2230.75 L 3641.75,2228 L 3638.25,2226 L 3635.25,2229.5 L 3632.5,2232.25 L 3625.75,2233.75 L 3618.75,2234.25 L 3609.5,2235.75 L 3605.5,2238.75 L 3601.5,2243 L 3600.25,2247.5 L 3599.5,2252.75 L 3600,2255.5 L 3598.75,2259 L 3596.25,2262 L 3593.25,2264 L 3583.5,2269.5 L 3577.75,2273 L 3571.25,2277.75 L 3566.25,2279.75 L 3562.75,2277.75 L 3560.75,2274.25 L 3548.75,2257.5 L 3541.75,2246.5 L 3541.25,2242.5 L 3540.5,2239.5 L 3539.75,2230.25 L 3538.75,2220.5 L 3539,2208.75 L 3538,2193.5 L 3538,2180.25 L 3538,2176.75 L 3536,2178 L 3534.75,2181.25 L 3532.5,2184 L 3533.75,2187.75 L 3533,2202.75 L 3534,2212.5 L 3533.75,2226.75 L 3533.5,2230.75 L 3532.75,2233 L 3529.5,2231.75 L 3523.25,2229.25 L 3517,2226.5 L 3512.5,2224.25 L 3509.38,2223 L 3507.88,2222.5 L 3506.63,2224.75 L 3508.88,2226.38 L 3514.88,2229.63 L 3519.63,2231.75 L 3526.63,2234.75 L 3531,2237.63 L 3532.75,2240.13 L 3533.38,2243.75 L 3536,2251 L 3539.38,2256.63 L 3546.5,2267.25 L 3552,2275.75 L 3555.38,2280.5 L 3558.38,2284.63 L 3559.25,2290.38 L 3559.13,2294.75 L 3555.75,2303.38 L 3554.38,2306.25 L 3553.25,2312.88 L 3553.38,2323.63 L 3555.5,2328.38 L 3558.75,2334.13 L 3563.25,2340 L 3567.13,2344.25 L 3568.88,2346.75 L 3569.13,2349.88 L 3568,2353.75 L 3564.88,2356.38 L 3565.63,2360.88 L 3565.75,2365 L 3565.75,2369.13 L 3565.5,2376.38 L 3563.5,2382.5 L 3560.25,2385.13 L 3557.38,2387.25 L 3552,2391.75 L 3547.63,2399.75 L 3545.63,2405.25 L 3543.13,2408.88 L 3539.38,2412.75 L 3536.63,2414.5 L 3533.75,2414.5 L 3529.88,2413 L 3524.25,2412 L 3521.63,2410.38 L 3517.13,2414.75 L 3519.88,2417.88 L 3523,2424 L 3527.88,2427.75 L 3532.25,2429.13 L 3537.75,2429.5 L 3541,2429.5 L 3544.5,2432.63 L 3546.63,2436.25 L 3548.88,2439.25 L 3549.88,2441 L 3550.13,2444.5 L 3549.25,2446.5 L 3547.75,2447.5 L 3546.63,2446.25 L 3545.25,2445.25 L 3542.5,2444.88 L 3541.25,2447.13 L 3540.75,2451.63 L 3540.25,2454.5 L 3540.5,2459.63 L 3538.75,2462.75 L 3536,2465.38 L 3533.75,2465 L 3529.88,2471 L 3528.75,2472.75 L 3521.75,2477.25 L 3515.88,2482.38 L 3510.63,2487.13 L 3503.13,2493.5 L 3499.75,2501.25 L 3497.5,2508.63 L 3495.63,2514.75 L 3495.25,2521.75 L 3496.63,2525.88 L 3497.88,2527.63 L 3497.75,2533.5 L 3498.13,2542.75 L 3499.75,2559.13 L 3500.13,2568.5 L 3503,2581.38 L 3504.38,2593.88 L 3505.38,2602.75 L 3506.63,2608.63 L 3505.63,2613.88 L 3503.88,2620.13 L 3501.38,2624.25 L 3496.13,2627.25 L 3491.88,2628.38 L 3484.25,2628.8 L 3476.53,2628.45 L 3461.11,2627.78 L 3428.81,2623.55 L 3404.96,2620.01 L 3386.96,2620.08 L 3370.81,2621.98 L 3358.73,2627.86 L 3355.25,2631.75 L 3353.25,2637.5 L 3348.25,2643 L 3342,2650 L 3334.75,2651.25 L 3327.75,2646.75 L 3313.75,2626.75 L 3305.5,2617.5 L 3300.25,2614.75 L 3291,2611 L 3278.75,2608.5 L 3270.75,2609 L 3264.75,2610 L 3258.75,2613.75 L 3253.25,2617 L 3248.25,2615.25 L 3246,2611.75 L 3245.75,2603 L 3240,2598 L 3235.5,2593 L 3231.75,2593.25 L 3225.5,2595.5 L 3219.75,2597.75 L 3210.25,2598.25 L 3194.5,2599 L 3186.5,2603 L 3179.75,2607.5 L 3176.5,2611.5 L 3169.75,2615.5 L 3161.5,2614.75 L 3154,2613.25 L 3143.5,2607.75 L 3140.25,2606.75 L 3134.25,2605 L 3132,2601.75 L 3132.75,2596.75 L 3135.5,2593.75 L 3134,2587.5 L 3132.5,2579.5 L 3130.25,2575.25 L 3126.5,2574.25 L 3120,2574.25 L 3112.25,2575.25 L 3104,2577 L 3101.75,2578.75 L 3102.25,2580.75 L 3107.75,2581 L 3116.75,2580 L 3123.25,2580.25 L 3128.25,2584 L 3129.5,2588.25 L 3128.5,2594.25 L 3126.75,2599.25 L 3125.25,2605.5 L 3128.25,2608.5 L 3134,2612.75 L 3142,2616 L 3155.75,2620.25 L 3166,2621.5 L 3175,2620.75 L 3183,2616.5 L 3189.5,2609 L 3192.5,2606.75 L 3198.5,2605.25 L 3208.25,2604.75 L 3215,2604.75 L 3220.5,2604.75 L 3226.25,2603.5 L 3231.25,2601.25 L 3235,2600.25 L 3237,2602 L 3237.75,2605.75 L 3237.75,2611.5 L 3240.5,2617.5 L 3245.75,2621.75 L 3251,2623.5 L 3259.25,2620.75 L 3264,2617.75 L 3270,2615.75 L 3276.5,2614.75 L 3285.25,2616 L 3296,2620.75 L 3302.75,2624 L 3305.75,2628.5 L 3305,2636.75 L 3306.75,2649 L 3310,2654.75 L 3320,2664 L 3329,2664.5 L 3336,2663.5 L 3344.75,2657.75 L 3350.25,2652 L 3352.75,2648.5 L 3355.25,2645.5 L 3357.75,2642.75 L 3361.25,2645.25 L 3369.75,2652.25 L 3368.5,2660.25 L 3364,2674.75 L 3363.5,2684.75 L 3361,2692.5 L 3360.75,2709 L 3370.5,2709.25 L 3373.75,2712.25 L 3374,2719.5 L 3373,2724.75 L 3388.25,2734.75 L 3430.25,2669.25 L 3427.25,2665.75 L 3424.25,2661 L 3427.25,2653 L 3430.5,2651 L 3441,2652 L 3490.93,2666.99 L 3509.29,2672.01 L 3541.61,2684.64 L 3557.05,2695.12 L 3577.64,2712.89 L 3589.03,2725.95 L 3597.51,2739.76 L 3601.55,2746.3 L 3603.04,2757.21 L 3602.7,2765.58 L 3599.78,2773.25 L 3595.39,2780.17 L 3588.06,2785.3 L 3479.93,2862.96 L 3472.6,2868.09 L 3465.75,2872.75 L 3461.5,2874.75 L 3446.25,2878.5 L 3434.5,2878.75 L 3415.75,2873.5 L 3410.5,2870.25 L 3402.75,2865.75 L 3389.5,2856.5 L 3382.25,2852.75 L 3383.75,2847 L 3386,2841.25 L 3386.5,2837.25 L 3385.25,2834.5 L 3374,2829.25 L 3343.25,2816 L 3331.25,2810.25 L 3327.25,2808.75 L 3324.5,2809.5 L 3322.75,2814.25 L 3321.75,2818 L 3324.25,2819.75 L 3330,2822.5 L 3337,2825.25 L 3340.75,2826.75 L 3340.75,2829.5 L 3339.25,2831.75 L 3336.25,2830.75 L 3333.5,2832 L 3335,2836 L 3333.5,2842.5 L 3334,2875.25 L 3333.25,2902.5 L 3333.75,2938.25 L 3333.75,2941 L 3335.75,2942.25 L 3335.5,2944.5 L 3336,2949 L 3332.25,2949.75 L 3327,2950 L 3324.25,2952.75 L 3321.75,2955 L 3327.5,2961.75 L 3339.25,2974.25 L 3339.75,2976.25 L 3338,2978.25 L 3331,2984.5 L 3328.5,2986 L 3325,2983 L 3317.25,2973.75 L 3291.25,2944 L 3258,2908 L 3257,2906 L 3254.25,2907.5 L 3240.5,2921 L 3241,2924.25 L 3245.75,2929.75 L 3258.5,2946.75 L 3268.5,2960.5 L 3270,2963 L 3268,2965.75 L 3262.25,2970.75 L 3260.25,2973.5 L 3257.5,2972 L 3252,2966.5 L 3234.25,2949.5 L 3211.5,2929.25 L 3188.25,2905.25 L 3182.75,2900.75 L 3180.75,2898.25 L 3176.5,2896.25 L 3158,2896.5 L 3128.25,2897.25 L 3086.75,2898.5 L 3073.01,2907.28 L 2992.72,2955.3 L 2989.43,2955.69 L 2982.82,2956.45 L 2925.57,2955.23 L 2922.24,2953.06 L 2921.15,2949.42 L 2921.15,2947.24 L 2910.48,2944.37 L 2896.5,2944.5 L 2893,2947.5 L 2888,2945.5 L 2887.5,2940.5 L 2887,2936 L 2890,2930 L 2893.5,2921.5 L 2896.5,2914 L 2897,2907.5 L 2894.5,2908.5 L 2888.5,2922 L 2883,2935.5 L 2879,2942 L 2875.5,2944 L 2869.5,2941 L 2864,2934.5 L 2851.5,2923.5 L 2842.5,2916.5 L 2842.5,2914 L 2855,2900 L 2860.5,2895 L 2862,2890.5 L 2860,2889.5 L 2856,2892.5 L 2846.5,2902 L 2836.5,2912 L 2834,2911 L 2828.5,2909.5 L 2816,2910 L 2812.5,2912.5 L 2808.5,2918.5 L 2804,2927 L 2799.5,2928.5 L 2792.5,2928 L 2786.5,2929 L 2780.5,2931 L 2775,2932.5 L 2772.5,2929.5 L 2769,2923.5 L 2765.5,2920.5 L 2763,2923 L 2760.5,2926.5 L 2753.5,2932.5 L 2750,2937.5 L 2743.5,2943.5 L 2740.5,2947 L 2740,2950.5 L 2740.5,2956 L 2739,2961.5 L 2733,2961.5 L 2725,2955.5 L 2714,2943.5 L 2705.5,2935 L 2682.5,2917 L 2685.5,2910.5 L 2667,2895 L 2656.5,2888 L 2653,2889.5 L 2650.5,2884.5 L 2650.5,2880.5 L 2646,2881.5 L 2642.5,2884.5 L 2639.5,2881 L 2639.5,2878.5 L 2635,2875.5 L 2635,2874 L 2636.5,2868 L 2633.5,2863.5 L 2629.5,2866 L 2626,2867.5 L 2620,2866.5 L 2615,2863 L 2613.5,2860.5 L 2610,2857.5 L 2609,2856.5 L 2603.5,2867.5 L 2598.5,2865.5 L 2609,2846.5 L 2604,2843 L 2597,2838.5 L 2589,2849 L 2581,2861 L 2526.5,2830 L 2465.5,2793 L 2433,2774 L 2384,2745 L 2348,2799 L 2290,2878 L 2116,2773 L 2041,2726 L 2070,2673 L 2116,2668 L 2272,2757 L 2313,2691 L 2162,2599 L 2191,2551 L 2172.7,2532.65 L 2147.69,2504.35 L 2129.29,2479.3 L 2106.46,2444.07 L 2096.53,2430.27 L 2095.02,2412.07 L 2092.07,2404.07 L 2075.51,2384.11 L 2050.14,2359.82 L 2041.32,2354.75 L 2031.05,2354.8 L 2018,2355 L 2012.5,2354 L 2006.5,2352 L 2002,2346 L 1999,2338.5 L 1998,2333 L 1987,2333.5 L 1990.5,2345 L 1993,2351.5 L 1990.5,2354 L 1979.5,2360 L 1971,2366.5 L 1966.5,2372 L 1966.5,2377.5 L 1972,2383 L 1980,2383.5 L 1991.5,2382.5 L 2001.5,2379 L 2007.5,2374 L 2012,2371.5 L 2018,2370 L 2024.5,2371 L 2028.88,2373.74 L 2036.5,2378 L 2041,2382 L 2044,2386 L 2044.5,2390 L 2041.5,2394 L 2034,2402.5 L 2031,2407 L 2028,2411.5 L 2029,2414.5 L 2033.5,2409.5 L 2043,2402.5 L 2051.5,2395.5 L 2056.5,2394 L 2061,2396 L 2061.5,2402 L 2062.5,2406 L 2059,2408.5 L 2055,2411 L 2052.5,2413 L 2054.5,2416.5 L 2064,2410 L 2069.5,2417 L 2057,2422.5 L 2059,2427 L 2061.5,2425.5 L 2066,2424 L 2070.5,2421.5 L 2077,2434 L 2070.5,2437.5 L 2072,2440.5 L 2080,2437.5 L 2085.5,2453 L 2096.5,2477 L 2101.5,2491 L 2106,2504.5 L 2107.5,2509 L 2105,2514.5 L 2098.5,2517.5 L 2087,2519 L 2069,2520.5 L 2070.5,2531 L 2067,2528.5 L 2063.5,2528.5 L 2064.5,2533.5 L 2061,2534 L 2060.5,2524.5 L 2055,2522 L 2056.5,2532.5 L 2048.5,2532.5 L 2047,2526.5 L 2037,2529 L 2031,2528.5 L 2032,2541 L 2018.5,2542 L 2018,2526 L 2008.5,2526 L 2007,2522 L 1987.5,2520 L 1985.5,2525.5 L 1978.5,2524 L 1981.5,2515 L 1974.5,2513.5 L 1965.5,2511.5 L 1959,2509.5 L 1954,2505 L 1949.5,2500.5 L 1949,2494.5 L 1949.5,2491 L 1952,2490 L 1960,2472.5 L 1951.5,2469.5 L 1941.5,2468.5 L 1927.5,2480 L 1911.5,2496.5 L 1890.5,2491 L 1859,2484 L 1831.5,2477.5 L 1822.5,2476 L 1797,2470 L 1779.5,2465 L 1769,2460 L 1765,2454 L 1762,2443.5 L 1757.5,2428.5 L 1759.5,2416 L 1763,2414.5 L 1769,2415 L 1772.5,2415.5 L 1774,2409.5 L 1776,2408.5 L 1780,2407.5 L 1782,2405 L 1783,2403.5 L 1777,2401.5 L 1772,2401.5 L 1763,2401.5 L 1760,2402 L 1759,2407 L 1755,2409.5 L 1752.5,2411.5 L 1753,2404.5 L 1754,2399 L 1750,2400 L 1744,2384 L 1741.5,2380.5 L 1734.5,2383.5 L 1730.5,2381.5 L 1731.5,2379.5 L 1737,2377 L 1742,2373.5 L 1738.5,2360.5 L 1739.5,2356.5 L 1739.5,2351.5 L 1738,2348.5 L 1735,2347.5 L 1736,2341.5 L 1738.5,2336 L 1742,2336 L 1745,2328.5 L 1745.08,2321.39 L 1778.01,2271.37 L 1795.93,2241.79 L 1801,2232.5 L 1805.5,2228 L 1805.5,2219 L 1811,2211.5 L 1812,2194 L 1816,2177.5 L 1820.5,2166 L 1822,2157 L 1821,2148.5 L 1815,2140 L 1812.5,2135 L 1811,2127.5 L 1807.5,2117.5 L 1809.5,2112 L 1804,2107.5 L 1801,2110 L 1797.5,2106 L 1794,2104 L 1784,2104 L 1777,2104 L 1771.5,2104.5 L 1761.5,2106 L 1754,2106.5 L 1751.5,2100.5 L 1752,2091 L 1756.5,2080.5 L 1759,2073.5 L 1765,2063 L 1772,2056.5 L 1774,2050 L 1777,2051 L 1782,2055.5 L 1786,2058.5 L 1788.5,2057.5 L 1789,2054.5 L 1792.5,2055 L 1797.5,2061.5 L 1804.5,2067.5 L 1813,2072 L 1819,2072.5 L 1821.5,2076.5 L 1823.5,2080.5 L 1825,2083 L 1826.5,2078 L 1826.5,2071.5 L 1826.5,2064.5 L 1827,2057.5 L 1828.5,2052 L 1826,2043 L 1820,2031.5 L 1818,2021.5 L 1816.5,2010.5 L 1808,1998.5 L 1800,1982.5 L 1794.5,1976 L 1787,1970 L 1782.5,1963 L 1780.5,1951.5 L 1778,1943 L 1776,1937 L 1772,1932.5 L 1763,1930 L 1758.5,1929 L 1753,1926.5 L 1751,1926 L 1751,1918.5 L 1745.5,1918.5 L 1746,1924.5 L 1743,1930.5 L 1740.5,1933 L 1733,1933.5 L 1721,1926.5 L 1718,1923.5 L 1706,1916.5 L 1695.5,1916.5 L 1683,1920 L 1673.5,1928.5 L 1669.5,1935 L 1669.5,1938.5 L 1671.5,1947 L 1679.5,1954 L 1687.5,1956.5 L 1696.5,1955.5 L 1701.5,1953 L 1706.5,1951 L 1712.5,1959.5 L 1720.5,1966.5 L 1728.5,1972.5 L 1736,1977 L 1738.5,1982 L 1736,1987.5 L 1735,1993.5 L 1736.5,2005 L 1741.5,2013 L 1749,2018.5 L 1751.5,2029 L 1754.5,2037.5 L 1756,2047.5 L 1754.5,2056 L 1751,2066 L 1744.5,2082.5 L 1741.5,2097.5 L 1742,2109 L 1746,2114 L 1751,2117 L 1766.5,2117.5 L 1781,2116 L 1791.5,2115.5 L 1803.8,2135.42 L 1807.12,2145.24 L 1807.15,2160.54 L 1805.7,2170.74 L 1801.69,2181.32 L 1796.2,2191.54 L 1784.13,2211.25 L 1770,2232 L 1759,2248.5 L 1753.5,2255 L 1752,2260.5 L 1753.5,2264 L 1751.5,2269.5 L 1746,2277.5 L 1732.5,2301.5 L 1726.5,2313 L 1714.5,2341.5 L 1710,2361.5 L 1702.5,2367 L 1686.5,2407 L 1683,2412 L 1689,2419.5 L 1694.5,2421.5 L 1699.5,2419.5 L 1713.5,2419 L 1720,2416.5 L 1725.5,2416.5 L 1729,2426.5 L 1741,2459.5 L 1737.5,2466.5 L 1733,2475 L 1709,2463 L 1677,2447.5 L 1628,2406.5 L 1590,2373 L 1576,2374 L 1558,2374 L 1557,2368.5 L 1550,2366.5 L 1540,2369 L 1538.91,2370.69 L 1531.57,2369.99 L 1527.91,2372.92 L 1523.51,2377.31 L 1514.71,2382.81 L 1502.5,2382.5 L 1495,2381.5 L 1496.5,2424.5 L 1497,2454.5 L 1461,2457 L 1417.5,2457.5 L 1416.5,2438.5 L 1416,2430.5 L 1409.5,2427.5 L 1398.5,2428 L 1385.5,2421 L 1376.5,2418 L 1370.5,2412 L 1363.5,2404 L 1357,2394.5 L 1355.5,2383 L 1350,2381 L 1327,2382.5 L 1319.5,2385 L 1311,2397 L 1305,2412.5 L 1304,2423.5 L 1304.5,2431.5 L 1307.5,2436 L 1307,2470 L 1305,2475 L 1302.5,2478.5 L 1298,2474.5 L 1289,2477.5 L 1276,2482.5 L 1265.71,2481.08 L 1235.25,2484.25 L 1220.5,2487 L 1205,2488.25 L 1190.75,2492.25 L 1184,2493 L 1181,2492.75 L 1179.75,2487.75 L 1175.75,2470 L 1174.25,2451.5 L 1172.75,2430.75 L 1170.5,2413.5 L 1169.25,2401 L 1167,2392.25 L 1164,2382.5 L 1164,2377.25 L 1166,2373 L 1165.75,2370 L 1160.75,2368.75 L 1157.5,2365 L 1155.25,2361.75 L 1150.5,2362.25 L 1147.5,2364.5 L 1142.75,2368 L 1139.75,2377 L 1141.25,2385.75 L 1142,2390.5 L 1143.25,2399.25 L 1145,2421.5 L 1147.75,2437.25 L 1150,2447 L 1150.5,2462 L 1152.75,2470.25 L 1153.5,2485.5 L 1154.25,2499.25 L 1155.5,2506.25 L 1153.25,2508.75 L 1147.5,2511.25 L 1134,2519 L 1128.5,2513 L 1122,2519 L 1111.5,2524.5 L 1087.5,2500.5 L 1067.5,2477.5 L 1047,2456.5 L 1043.5,2451 L 1041.5,2440 L 1038.5,2427 L 1038,2397 L 1027.5,2396.5 L 1017,2398.5 L 1018,2414 L 1006,2417.5 L 1003.5,2412.5 L 996,2414.5 L 1000.5,2424.5 L 990.5,2428 L 994,2462 L 995.5,2475 L 1054,2536.5 L 1057.5,2542 L 1040,2561 L 1003,2589.5 L 983.5,2605 L 957,2629 L 944.5,2614.5 L 947.5,2612.5 L 932.5,2587 L 910.5,2575 L 892,2607 L 835,2574.5 L 855.5,2543.5 L 859.5,2535 L 865.5,2532 L 850.5,2517.5 L 830.5,2534 L 823,2526 L 809.5,2537 L 807,2534 L 837.5,2507 L 828.5,2496.5 L 824,2494 L 821,2497 L 813,2488 L 785.5,2511 L 783.5,2506.5 L 807.5,2485 L 794,2469.5 L 785.5,2476 L 777.5,2483.5 L 768,2490 L 751,2471 L 748,2472 L 741.5,2463 L 766.5,2436 L 791.5,2406 L 794.5,2407 L 797,2405.5 L 804,2411.5 L 808,2409.5 L 798,2400 L 816,2378 L 820.5,2381.5 L 823.5,2380 L 819,2375.5 L 841,2353.5 L 837.5,2347 L 837,2339 L 826,2335.5 L 822,2338.5 L 819,2340.5 L 807.5,2352 L 806,2356 L 804.5,2358 L 796.5,2351.5 L 795,2356 L 801,2360.5 L 796,2366 L 791.5,2362.5 L 782.5,2379.5 L 778.5,2379 L 762,2398 L 757,2405.5 L 743.5,2421 L 739.5,2417 L 734,2410.5 L 714,2430 L 710.5,2427.5 L 728.5,2407.5 L 719,2396 L 697.5,2416 L 695,2414 L 715.5,2391.5 L 701,2378 L 699,2375.5 L 698.5,2364.5 L 704,2357 L 710.5,2353 L 733.5,2329 L 761.5,2299.5 L 769.5,2290 L 761.5,2274.5 L 757.5,2279.5 L 753,2276 L 759.5,2272 L 741,2259 L 719,2282 L 693.5,2308 L 670.5,2330 L 661,2336 L 656.5,2335.5 L 635.5,2319 L 616.5,2308.5 L 616,2299.5 L 599.5,2286.5 L 589,2272 L 547,2331 L 599,2400 L 656,2511 L 703,2594 L 737,2651 L 744,2679 L 743,2704 L 725,2736 L 687,2753 L 633,2786 L 559,2842 L 509,2872 L 469,2908 L 507,2969 L 563,3060 L 602,3129 L 608,3155 L 632,3201 L 656,3253 L 655,3280 L 654,3289 L 646,3295 L 635,3297 L 608,3288 L 580,3258 L 558,3248 L 470,3191 L 413,3157 L 368,3130 L 336,3109 L 330,3105 L 318,2755 L 323,2559 L 388,2407 L 419,2312 L 436,2265 L 456,2208 L 484,2140 L 498,2108 L 512,2070 L 524,2030 L 535,1994 L 550,1950 L 567.5,1909.5 L 569.5,1901.5 L 568,1898 L 564,1900.5 L 559,1901.5 L 552.5,1896 L 544,1884.5 L 542.5,1876 L 541,1865.5 L 541.5,1856.5 L 543.5,1847.5 L 491.5,1807 L 494.5,1804.5 L 546,1844 L 551.5,1837 L 559.5,1829 L 567.5,1825.5 L 573,1822 L 581.5,1823 L 588.5,1823.5 L 592,1829 L 592,1833 L 593.5,1838.5 L 595.5,1835.5 L 611,1789 L 622,1757 L 621,1752.5 L 623.5,1745.5 L 627.5,1746 L 627.5,1738 L 637,1727.5 L 650.5,1722 L 659,1715.5 L 675,1686 L 681.5,1683.5 L 705.5,1636 L 706,1630 L 711.5,1620 L 715,1612 L 720,1611.5 L 739.5,1572.5 L 733,1565.5 L 735,1560.5 L 737.5,1556 L 747,1555 L 755.5,1554 L 759.5,1549 L 758,1543 L 755,1535.5 L 762,1531 L 769.5,1539.5 L 771,1543 L 773,1546.5 L 778,1547.5 L 780.5,1543 L 779.5,1536.5 L 778,1530 L 788,1532 L 807,1497 L 817.5,1470.5 L 829,1446.5 L 836.5,1441.5 L 839,1428.5 L 836.5,1424 L 835.5,1418 L 838.5,1416.5 L 842,1418.5 L 847,1417.5 L 845,1411.5 L 840.5,1405.5 L 851.5,1395 L 854.5,1396 L 858.353,1388.09 L 865.688,1385.51 L 870.823,1384.04 L 871.898,1370.56 L 889.122,1357.74 L 899,1321 L 903.5,1309.5 L 906,1295.5 L 903.5,1279.5 L 903.5,1270 L 908,1250.5 L 908.5,1239 L 908,1231 L 904.265,1221.11 L 905.715,1211.64 L 908.626,1199.25 L 918,1174.5 L 913.5,1166.5 L 909,1160 L 908,1149 L 906.5,1134 L 910,1130.5 L 917.5,1129.5 L 932,1126 L 938,1116 L 940,1104 L 941,1094 L 948,1090 L 956,1089 L 962.5,1086.5 L 971.5,1091.5 L 978,1094.5 L 979.5,1086.5 L 988.5,1080 L 997.5,1077.5 L 1005,1069.5 L 1014.5,1064 L 1016,1057.5 L 1011.5,1055 L 1010.5,1051.5 L 1008,1044.5 L 1011.5,1038 L 1019.5,1031.5 L 1028.5,1032 L 1034.5,1031.5 L 1038,1028 L 1030.5,1023.5 L 1026.5,1013.5 L 1030,991.5 L 1029,985 L 1032.5,976.5 L 1035.5,974.5 L 1039.5,969.5 L 1035,965.5 L 1034.5,961.5 L 1040,955.5 L 1046,947.5 L 1048,939 L 1054.48,903.301 L 1058.14,896.731 L 1060.33,892.716 L 1062.5,881.5 L 1066,878.5 L 1072,878.5 L 1079,875.5 L 1081.5,871 L 1086.5,864 L 1098.5,841 L 1106,833.5 L 1116,834 L 1119.5,838.5 L 1131,839 L 1140,836.5 L 1150.5,828 L 1156.5,826.5 L 1164.5,815.5 L 1168.5,810.5 L 1178.5,809 L 1185.5,812.5 L 1192,814 L 1198,815 L 1202.5,817 L 1206,818.5 L 1206.5,814 L 1205,809 L 1210.5,799.5 L 1220.5,794.5 L 1233.5,792 L 1237.5,785 L 1241.5,781.5 L 1248.5,784 L 1253.5,781 L 1264.5,779 L 1271,781.5 L 1276,778.5 L 1284.5,778 L 1299,776.5 L 1328.5,759 L 1338.5,753.5 L 1360.5,729 L 1377.5,714.5 L 1391,697 L 1412,686 L 1429.5,670.5 L 1440,654 L 1461.5,636.5 L 1480.77,626.943 L 1498.36,614.488 L 1513.39,606.05 L 1524,594.5 L 1532,586.5 L 1548,576 L 1579,567.5 L 1601.5,561.5 L 1616.5,558.5 L 1637,554 L 1655,551 L 1668,554 L 1675.5,557.5 L 1668.5,553.5 L 1677.5,558.5 L 1680,564.5 L 1677.5,575 L 1677,580.5 L 1671.5,586 L 1669.5,592 L 1670.5,596 L 1676,596.5 L 1675,594.5 L 1676,589 L 1679.5,591.5 L 1684.5,593.5 L 1698,592 L 1708,587.5 L 1724,579 L 1733,573 L 1744.5,569 L 1756.5,571.5 L 1760.5,569.5 L 1762,575 L 1758.5,585.5 L 1746.5,608.5 L 1744.5,620.5 L 1743.5,634 L 1739.5,636 L 1740.5,640.5 L 1743.5,645 L 1744,646.5 L 1740.5,654 L 1737.5,669 L 1740.5,670 L 1742,661.5 L 1748,653 L 1751.5,643.5 L 1750,632.5 L 1751.5,619.5 L 1753,610 L 1759,598.5 L 1768.5,581.5 L 1773.5,575 L 1776.5,571 L 1780,576 L 1785,581.5 L 1784,588 L 1781.5,591.5 L 1777.5,594 L 1779,597 L 1785.5,594.5 L 1788,594 L 1794,596.5 L 1799.5,601.5 L 1802,606 L 1808,611.5 L 1812.5,614.5 L 1815,622 L 1819.5,630.5 L 1819.53,628.808 L 1829.46,639.327 L 1843.42,646.917 L 1853.33,650.517 L 1859.58,655.225 L 1865.1,659.208 L 1867.67,663.203 L 1868.05,667.207 L 1866.96,674.495 L 1865.13,678.508 L 1857.08,689.831 L 1853.07,701.501 L 1850.15,711.346 L 1852,724 L 1850.5,729 L 1852.5,735.5 L 1867.5,745.75 L 1873.5,749.75 L 1874.5,754 L 1872.25,758.5 L 1868.25,762.75 L 1866.75,767.75 L 1869.5,771.75 L 1873.75,773.25 L 1874.25,775 L 1874.25,776.5 L 1879.5,776.25 L 1880.5,778 L 1880,781 L 1878.75,784.75 L 1874.5,788.5 L 1868,789.75 L 1865.5,791.25 L 1860.75,793.25 L 1857.5,792 L 1856.75,790 L 1854.75,791 L 1854.5,793.75 L 1854.5,798.75 L 1851.75,798.25 L 1848.25,798.75 L 1846.5,802.75 L 1842.5,809.75 L 1844.5,811 L 1846.25,810.75 L 1847,814.5 L 1847,816.25 L 1845.5,820.75 L 1846.5,821.75 L 1850,821.5 L 1852.25,821.5 L 1858.25,823.75 L 1862.75,823.25 L 1867.25,823.25 L 1871.5,824.25 L 1874,824.25 L 1874.25,826 L 1873.25,828.25 L 1867,842.25 L 1864.5,842.5 L 1862.75,843 L 1861.25,844.25 L 1860,847.25 L 1860.25,851.25 L 1861.75,852.25 L 1861.25,855.5 L 1861,857.75 L 1860,859.75 L 1857.25,861.25 L 1858,864.75 L 1854.25,867.5 L 1852.5,868.75 L 1853.25,871.5 L 1854,876.25 L 1855.75,876.25 L 1855.75,879.25 L 1854.75,880.5 L 1852.75,884 L 1850,884.75 L 1848.75,886.25 L 1846.5,887.25 L 1843.75,887.5 L 1842.5,893.5 L 1826.75,901 L 1825,902.25 L 1826.25,904.25 L 1829.25,903.5 L 1839.5,900 L 1845.5,897.75 L 1848,900 L 1847.25,904.25 L 1846,909.5 L 1844.25,913.75 L 1843.25,916.75 L 1843.75,921.75 L 1844.5,930.25 L 1844.75,935.75 L 1843.75,938.75 L 1840.75,940.25 L 1827.75,953.5 L 1799.5,979.5 L 1783.25,993.75 L 1771.75,1004.25 L 1765,1010.25 L 1762.25,1008 L 1760,1009 L 1760,1011.25 L 1761.75,1013.75 L 1762.75,1016.75 L 1760.75,1017.25 L 1757.75,1017 L 1755,1015 L 1751.75,1015.25 L 1747.25,1019.25 L 1743.75,1024.5 L 1742.25,1024.75 L 1741,1022.5 L 1737.5,1017.25 L 1730.75,1017.25 L 1725.75,1017 L 1724.25,1014.75 L 1719,1014.75 L 1721.25,1010.75 L 1720.5,1007.5 L 1718,1008.5 L 1713.75,1008.75 L 1709.25,1010.5 L 1706.75,1012.5 L 1705,1014.25 L 1702.25,1014.5 L 1698.75,1012.75 L 1697,1010.75 L 1693.75,1008.25 L 1689.5,1006.25 L 1684.25,1003.75 L 1681.25,1003.25 L 1679,1002.75 L 1678.25,1004.25 L 1680,1006.5 L 1684.25,1009 L 1689.75,1012.5 L 1696,1015 L 1700.25,1016.5 L 1701.5,1020.75 L 1702.25,1024 L 1704.5,1025.75 L 1705.75,1028.25 L 1704.25,1031.75 L 1705,1038.75 L 1704.75,1043.75 L 1701.5,1046.5 L 1698,1047.75 L 1694.75,1047.5 L 1693,1046.5 L 1689.5,1046 L 1686.5,1047.75 L 1679.5,1049 L 1667,1053 L 1662,1054.5 L 1650,1051.75 L 1643.25,1050.75 L 1638,1051.25 L 1630.5,1049 L 1625.25,1045 L 1595.75,1012.5 L 1592.5,1010.5 L 1587.25,1010.75 L 1583,1012 L 1577.75,1012 L 1572.5,1014.25 L 1569.5,1017.75 L 1567.25,1022.75 L 1566.25,1026.25 L 1565,1030.25 L 1562.75,1031.25 L 1559.25,1032.5 L 1557.25,1034 L 1551.25,1035.5 L 1547.5,1038.5 L 1543.75,1039.75 L 1539.75,1037.25 L 1535,1037.25 L 1528.5,1039.75 L 1523.5,1040.25 L 1514,1041.5 L 1497.25,1043.75 L 1462.75,1045 L 1453.25,1044.25 L 1446.75,1039.25 L 1440.25,1034.5 L 1439.25,1058.25 L 1436,1060 L 1433.75,1061 L 1433.25,1064.75 L 1435,1067.5 L 1439.5,1067.5 L 1445.75,1066 L 1454.5,1061.25 L 1463.5,1056.5 L 1468,1055 L 1479.25,1054.75 L 1499,1055.75 L 1512.75,1058 L 1518.25,1060.75 L 1520.5,1066.5 L 1522.25,1071.25 L 1525,1072.75 L 1528.25,1074.5 L 1529.75,1076.75 L 1528.75,1081 L 1527.5,1083.5 L 1522.5,1083.75 L 1514.5,1083.25 L 1511.75,1084 L 1506.25,1089.5 L 1496.5,1096.25 L 1493,1098.5 L 1484.25,1100 L 1467.5,1100.5 L 1461.75,1101 L 1460.5,1103.5 L 1461,1108 L 1460.25,1113.25 L 1462.5,1115 L 1466.5,1113.5 L 1477.25,1112.75 L 1485.75,1113.75 L 1490.5,1116.75 L 1496.25,1121.5 L 1499,1126 L 1504,1131 L 1506,1134.5 L 1513,1135 L 1522.75,1135.5 L 1527.75,1133 L 1527.75,1128 L 1529.75,1124.5 L 1531.75,1119.5 L 1531.75,1115.75 L 1529.25,1113.75 L 1520.75,1105.5 L 1520.25,1101.25 L 1526.75,1092 L 1531.5,1087 L 1534,1085.5 L 1539.75,1085.25 L 1541.25,1081.5 L 1541.75,1077 L 1547.25,1066.75 L 1550.5,1066 L 1551.5,1059.25 L 1555.25,1051.5 L 1559.25,1047.75 L 1564.25,1046 L 1571.75,1046.25 L 1575.75,1045.75 L 1580.25,1047 L 1585.75,1052.5 L 1594.75,1061.5 L 1597.25,1065.5 L 1596.75,1068.75 L 1593,1070 L 1589.75,1077 L 1590.5,1081.75 L 1593.5,1088.5 L 1596.75,1096 L 1600,1098.5 L 1608,1097 L 1610.75,1090.75 L 1616.25,1090.75 L 1623,1089 L 1627.75,1086 L 1633.5,1083 L 1638.5,1082.75 L 1655.5,1079.25 L 1663.75,1079.75 L 1668.5,1080 L 1672.5,1075.75 L 1675.75,1073 L 1681.5,1072.25 L 1683,1074.25 L 1681,1075.5 L 1677.75,1075.75 L 1679.75,1079 L 1683.5,1081.25 L 1682.5,1088.25 L 1681.5,1096 L 1681.5,1101.75 L 1679.5,1104.5 L 1678.5,1107.25 L 1677.75,1110.25 L 1681.75,1113 L 1684.5,1108.5 L 1687.75,1100.25 L 1693,1092.75 L 1698.25,1086.75 L 1700.5,1082.25 L 1706.25,1080.5 L 1709,1081.75 L 1710.25,1084.5 L 1711.5,1086.25 L 1713.5,1085.75 L 1713.25,1083 L 1716.25,1082 L 1719.75,1083.25 L 1722,1087.5 L 1724.75,1095.5 L 1727.25,1099.75 L 1726.75,1108 L 1723.75,1110.75 L 1726.25,1120 L 1726,1126.75 L 1720.75,1138.75 L 1718.25,1142.75 L 1712.5,1145.75 L 1710.25,1149 L 1708.75,1150.75 L 1706,1148.25 L 1704.25,1151.75 L 1705.25,1157.25 L 1708.5,1165.5 L 1706.5,1173.25 L 1702.75,1179.75 L 1696.75,1182 L 1694.25,1183.75 L 1693.5,1189.25 L 1699,1194.5 L 1700.5,1195.75 L 1698.75,1203.5 L 1693,1210.25 L 1686.25,1217 L 1680.25,1221 L 1682.5,1226.25 L 1686,1227.5 L 1691.5,1228 L 1697.75,1230 L 1702.5,1236.5 L 1702.75,1246.25 L 1701.75,1250 L 1699,1252.5 L 1696.25,1259.75 L 1695.5,1265.5 L 1692.25,1268.25 L 1686,1270.5 L 1683.25,1272.5 L 1677.25,1274.5 L 1675.25,1271 L 1671.25,1269.75 L 1669.75,1274.75 L 1668.5,1278.5 L 1668.75,1281.25 L 1672,1284.5 L 1670.75,1287.75 L 1666.25,1289.25 L 1649.75,1296.75 L 1645.5,1300.5 L 1640.5,1299.25 L 1633.5,1297.5 L 1626,1294.25 L 1624,1292 L 1620.75,1287 L 1592.25,1249.5 L 1589.75,1248 L 1586,1248 L 1583.5,1250 L 1583.75,1251.75 L 1586.75,1255.75 L 1605,1280 L 1619.5,1297.25 L 1622.25,1300.75 L 1624.75,1303 L 1624.75,1303.75 L 1619,1304 L 1613.5,1304.25 L 1603,1306.5 L 1594.75,1311.75 L 1586.5,1320.25 L 1582.25,1326.25 L 1579.5,1329.5 L 1573.5,1329.5 L 1570.5,1331.5 L 1571.75,1333.25 L 1574,1334 L 1576,1335.5 L 1572.25,1338 L 1561.5,1347.5 L 1558,1350 L 1556.75,1352 L 1558.5,1354.75 L 1561.5,1353.25 L 1562.75,1351.75 L 1565,1353.25 L 1567.25,1355 L 1569.75,1353.25 L 1569.75,1348.75 L 1574.25,1343.5 L 1588.25,1329.25 L 1599,1318.25 L 1605,1313.75 L 1612.75,1312.5 L 1623.5,1311.75 L 1633.25,1311.5 L 1643.25,1311 L 1645.25,1312.25 L 1645.25,1322 L 1649.25,1345 L 1652,1368 L 1652.5,1372.75 L 1650.5,1378.5 L 1648.25,1384.25 L 1641,1391 L 1637.5,1396 L 1635,1400.75 L 1634,1409.25 L 1634.75,1420.5 L 1637,1429.25 L 1639.25,1441.5 L 1639.75,1447.25 L 1636.75,1450 L 1623,1454.75 L 1608.25,1460.5 L 1605.5,1462.25 L 1605.25,1463.5 L 1609.25,1463.5 L 1620.5,1460.25 L 1633.25,1456.25 L 1640.25,1452.5 L 1643.25,1448.75 L 1644.5,1445 L 1642.5,1438.5 L 1638,1415 L 1638.25,1404 L 1643,1396 L 1653.5,1386.25 L 1658.25,1379.75 L 1659.75,1376.5 L 1658.5,1348.25 L 1656.5,1313.5 L 1660.25,1307 L 1664.75,1302.25 L 1671,1300.25 L 1678.5,1297.25 L 1686.5,1296.25 L 1689.5,1294.5 L 1694.25,1294.75 L 1697.5,1296.75 L 1701.25,1295.5 L 1705.5,1291.75 L 1705.75,1285.25 L 1707.25,1282.5 L 1708.75,1279.25 L 1713,1277.5 L 1720,1273 L 1721.75,1269.75 L 1719.75,1266.5 L 1722.5,1262.75 L 1728.25,1257.25 L 1732.75,1256.25 L 1735.75,1254.5 L 1733.5,1251.5 L 1732,1250.5 L 1733.5,1245 L 1735,1240.25 L 1735.25,1234.75 L 1732.5,1230.5 L 1734.75,1226.25 L 1734.25,1218.5 L 1734,1215 L 1731.25,1212.75 L 1732.25,1209.5 L 1731.25,1203.75 L 1729.5,1199.5 L 1729.75,1195.5 L 1732.5,1190.75 L 1734.5,1182.75 L 1737,1178.75 L 1741.25,1176.75 L 1742.5,1172 L 1743.75,1167.75 L 1750.75,1162 L 1751.5,1156.75 L 1755.25,1155.75 L 1760.5,1155.75 L 1763.5,1155.75 L 1765.25,1159.75 L 1766,1166.75 L 1772.25,1176 L 1775.75,1182.25 L 1781,1185.25 L 1783,1190 L 1785.75,1192.75 L 1787,1199.5 L 1788.25,1205 L 1794.5,1211 L 1796.75,1214.75 L 1797.75,1218 L 1805.75,1221.5 L 1805,1243.25 L 1810.5,1245.25 L 1812.75,1250.25 L 1814.5,1254 L 1817.25,1262.75 L 1817.25,1270 L 1814.5,1275 L 1815,1280.75 L 1816.75,1285.25 L 1819,1294.75 L 1820,1300.5 L 1821.5,1308 L 1821,1319 L 1817.5,1335.5 L 1813.25,1356.75 L 1809,1377 L 1804.25,1408.25 L 1801.75,1413.75 L 1803.75,1418.25 L 1805,1434.25 L 1804.25,1456 L 1803.75,1459.25 L 1804.75,1460.5 L 1807,1460.75 L 1809.25,1461 L 1808.25,1457.25 L 1810,1441 L 1812,1414.25 L 1813.5,1403.25 L 1818.75,1381.5 L 1825.5,1344.75 L 1827.25,1335.5 L 1828,1333.75 L 1830,1336 L 1845,1355.75 L 1867.25,1385 L 1869.75,1387.75 L 1873.75,1386.25 L 1874.25,1382.75 L 1869.5,1376.5 L 1837,1336 L 1838.5,1335.75 L 1844,1339.5 L 1851,1342.25 L 1874,1342.5 L 1879.5,1341.75 L 1882,1341 L 1878.75,1339.75 L 1872.75,1338.75 L 1852,1338.5 L 1843.75,1334 L 1836,1326.75 L 1835.5,1320.5 L 1841,1300.5 L 1844,1293.25 L 1846.5,1290 L 1852.25,1289 L 1858,1289.5 L 1860.75,1287.5 L 1859.25,1282.75 L 1857,1280.25 L 1854.75,1281.75 L 1852.75,1285 L 1848.75,1286.25 L 1845,1286 L 1842.75,1282.5 L 1842,1279.5 L 1844.5,1270.75 L 1846.5,1264.75 L 1853,1262.25 L 1857,1262 L 1855.75,1258.5 L 1851.5,1256.5 L 1849.75,1249.5 L 1845.75,1238.75 L 1841.25,1224 L 1836.25,1220.25 L 1835.25,1211.75 L 1826.75,1206.5 L 1826.5,1203.75 L 1818.75,1194 L 1818.75,1182.75 L 1821.5,1181 L 1820,1178.75 L 1815.75,1176.75 L 1813,1176.5 L 1800.5,1160.25 L 1800.25,1152 L 1783.75,1128.75 L 1778.25,1119.5 L 1775.25,1112.25 L 1772.75,1107.5 L 1769.5,1105.5 L 1769,1095 L 1767,1090.5 L 1767.25,1087.75 L 1770,1086.5 L 1769,1081.75 L 1765.5,1077.75 L 1764.25,1075 L 1770,1077 L 1781,1065 L 1783,1063 L 1788,1065.25 L 1791.25,1066.5 L 1796.5,1064 L 1801.25,1063 L 1802.5,1054.5 L 1803,1042.5 L 1808.5,1032.25 L 1811.25,1027.5 L 1817.25,1026.5 L 1821.25,1020.5 L 1825.5,1022 L 1830.25,1024.25 L 1832.75,1019.75 L 1836.75,1022 L 1838.25,1016.5 L 1836.25,1013 L 1838.5,1008.5 L 1842.5,1007.25 L 1845,1000.75 L 1850,999.5 L 1869.5,999.5 L 1872.5,1000.5 L 1874.75,997.25 L 1874.25,991 L 1877.5,989.75 L 1878.5,984.75 L 1882.75,983.75 L 1887.5,982.75 L 1887.75,979.25 L 1894.25,979 L 1894.75,972.75 L 1898,973.25 L 1902.25,972.75 L 1904.25,967.5 L 1908.25,967.75 L 1911.25,971.5 L 1914.5,971.5 L 1913.5,966 L 1905,943.5 L 1919.75,929 L 1925.25,926.25 L 1945,902.75 L 1952.25,898.5 L 1953.5,891.5 L 1956.25,890 L 1958.75,887.25 L 1958.75,879 L 1968,864.25 L 1974.25,855 L 1980.36,855.376 L 1984.02,851.719 L 1985.85,847.342 L 1986.21,842.606 L 1985.46,836.419 L 1985.81,827.313 L 1985.43,820.031 L 1980.64,809.49 L 1976.22,800.769 L 1972.16,792.774 L 1967.01,784.784 L 1961.11,773.519 L 1955.95,762.252 L 1946.01,745.906 L 1940.12,736.098 L 1937.54,728.825 L 1937.15,718.63 L 1938.96,708.79 L 1943.36,702.217 L 1950.69,698.181 L 1962.8,699.951 L 1975.66,705.36 L 1985.95,711.872 L 1992.56,716.943 L 2003.6,727.093 L 2014.26,735.789 L 2028.2,735.367 L 2042.14,732.395 L 2054.62,733.8 L 2059.04,737.787 L 2062.7,733.038 L 2068.56,727.915 L 2079.19,722.044 L 2091.3,719.08 L 2107.08,717.922 L 2143.78,717.769 L 2158.09,716.617 L 2166.9,716.944 L 2172.4,718.014 L 2175.35,720.915 L 2178.29,723.088 L 2179.76,727.087 L 2182.7,726.711 L 2187.47,725.598 L 2191.87,723.395 L 2196.63,720.462 L 2200.29,716.077 L 2202.85,708.054 L 2204.67,699.671 L 2206.85,688.737 L 2213.8,680.696 L 2217.45,671.577 L 2224.05,664.994 L 2235.41,655.115 L 2241.64,649.99 L 2243,628 L 2253,609 L 2279,583 L 2282,566 L 2290,564 L 2295,576 L 2301,583 L 2340.92,560.356 L 2355.96,555.923 L 2368.06,549.682 L 2376.86,544.911 L 2387.85,535.397 L 2405.08,525.493 L 2415.7,517.801 L 2427.07,512.291 L 2451.26,494.346 L 2469.58,480.432 L 2514.29,446.378 L 2541.05,428.786 L 2599.71,390.304 L 2612.52,381.511 L 2618.39,378.573 L 2626.84,376.353 L 2632.31,368.683 L 2641.84,360.995 L 2653.57,354.027 L 2663.85,353.62 L 2671.92,353.587 L 2677.43,349.558 L 2685.49,341.877 L 2693.91,335.651 L 2710.78,329.754 L 2729.5,322.029 L 2751.12,313.927 L 2766.53,313.134 L 2779.39,313.081 L 2791.5,308.5 L 2800.25,311.25 L 2812.75,310 L 2823,308 L 2837,306.5 L 2857,304.5 L 2875.25,303.25 L 2890,303.5 L 2903.05,305.282"
         style="fill:none;fill-opacity:0.75;fill-rule:evenodd;stroke:#000000;stroke-width:4px;stroke-linecap:butt;stroke-linejoin:miter;stroke-opacity:1" />
    </g>
  </g>
</svg>
